<svg version="1.1" viewBox="0 0 256 256" xmlns="http://www.w3.org/2000/svg">
 <rect width="256" height="256" ry="32" fill="#007a9e"/>
 <g transform="translate(1.5304 .51222)" fill="#fff" stroke="#fff" stroke-linecap="round" stroke-linejoin="round" stroke-width="10">
  <path d="m116.2 40.527 0.44354 55.035-17.982 0.79906-3.4406-54.901 1.4426 54.99-17.982 0.79906-4.4396-54.857c0.13419 2.4754 2.2226 48.234 2.4416 54.946 0.35398 10.85 9.4161 18.817 21.029 22.708l2.1917 94.377 5.9941-0.26635-6.1865-94.17c11.509-5.7018 19.639-14.619 18.93-24.513-0.5402-7.5418-2.4416-54.946-2.4416-54.946z"/>
  <path d="m148.63 41-13.226 172.52 5.9572 0.45684 4.0365-74.916c0.26829-4.792 4.8752-14.274 12.373-13.18 7.0931 0.37544 13.223-4.106 14.324-16.181l1.1009-10.705c1.9042-19.647-4.4382-57.608-24.566-57.994z"/>
 </g>
</svg>
